<?xml version="1.0" encoding="UTF-8" standalone="no"?><!DOCTYPE svg PUBLIC "-//W3C//DTD SVG 1.1//EN" "http://www.w3.org/Graphics/SVG/1.1/DTD/svg11.dtd"><svg width="100%" height="100%" viewBox="0 0 222 102" version="1.1" xmlns="http://www.w3.org/2000/svg" xmlns:xlink="http://www.w3.org/1999/xlink" xml:space="preserve" xmlns:serif="http://www.serif.com/" style="fill-rule:evenodd;clip-rule:evenodd;stroke-linejoin:round;stroke-miterlimit:1.41421;"><g><path d="M17.447,0.647c7.671,0.058 16.082,2.597 20.121,9.647c4.761,8.311 2.466,19.517 -5.335,25.809c0,0 7.479,4.446 10.796,10.467c5.353,9.718 3.802,23.26 -5.036,29.618c-6.669,4.798 -15.883,5.346 -23.215,4.811c-0.269,-0.019 -0.038,-0.005 -0.038,-0.005l0.174,-9.999c0.817,0.015 1.094,0.07 1.643,0.106c7.684,0.467 16.981,-0.975 18.993,-7.831c1.469,-5.009 0.244,-10.787 -3.264,-14.627c-3.228,-3.533 -7.927,-5.378 -12.376,-6.636c0,0 -0.6,-0.068 -1.671,-0.742l-1.011,-0.888c-0.539,-0.664 -0.309,-0.231 -0.832,-1.321l-0.27,-0.811c-0.192,-0.975 -0.178,-0.489 -0.119,-1.638l0.116,-0.709c0.256,-0.952 -0.094,-0.519 0.895,-1.896c0,0 1.896,-1.6 4.091,-2.698c4.136,-2.09 8.204,-4.684 8.73,-9.839c0.237,-2.321 0.066,-4.788 -1.266,-6.702c-3.253,-4.677 -10.545,-4.315 -17.28,-3.934l-0.089,0.005c-0.544,30.002 -0.633,60.197 0.11,89.722l0.008,0.297l-9.996,0.281c-0.875,-31.126 -0.623,-62.761 -0.062,-93.736l0.024,-1.295c0.339,-5.513 9.186,-5.47 16.159,-5.456Z" style="fill:#fff;fill-rule:nonzero;"/><path d="M150.014,41.074c-0.137,0.024 -0.856,9.232 -1.238,13.406c-0.55,6.009 0.965,16.153 7.553,16.243c4.474,0.062 7.287,-5.121 8.677,-10.111c0.472,-1.694 0.826,-3.417 1.117,-5.15c0,0 -0.13,-6.61 -0.113,-11.792c0.024,-6.372 0.054,-12.744 0.083,-19.116l0.018,-3.583l9.96,0.398c-0.02,13.488 0.065,22.475 0.127,34.387c0,0 0.127,2.64 0.38,4.449c0.549,3.931 1.61,8.249 4.916,9.946c8.323,4.271 18.338,-8.38 18.505,-21.709c0.023,-7.94 -0.002,-15.863 0,-23.793l0.001,-3.656l9.997,-0.161c0.027,0.807 0.056,1.615 0.085,2.422c0.576,15.262 0.766,30.764 3.542,45.848c0.853,4.632 3.21,9.661 6.887,11.505c0.23,0.116 0.599,0.191 0.599,0.191l-0.22,9.997c-9.914,-0.218 -15.856,-12.781 -17.235,-20.635c0,0 -2.175,3.044 -4.244,5.036c-7.776,7.485 -22.209,8.233 -28.88,-2.018c0,0 0.249,-0.743 -0.49,0.292c-5.224,7.207 -16.464,9.641 -23.558,3.868c-2.158,-1.757 -3.778,-4.106 -4.922,-6.651c-0.649,0.789 -1.341,1.543 -2.073,2.258c-10.986,10.718 -32.816,10.986 -38.927,-4.673c0,0 0.039,-0.163 -0.929,0.847c-8.956,9.184 -22.407,14.647 -34.682,11.536c-5.076,-1.286 -9.592,-4.625 -11.993,-9.469c-4.701,-9.486 -2.216,-21.898 1.248,-31.097c3.71,-9.856 11.948,-19.271 23.4,-19.385c3.104,-0.031 6.204,0.899 8.549,3.078c4.79,4.451 5.756,11.742 4.693,17.808c-2.004,11.435 -11.829,20.447 -23.307,24.162l-3.08,-9.514c0.539,-0.175 0.538,-0.174 1.065,-0.358c8.899,-3.181 16.751,-11.234 15.607,-20.38c-0.285,-2.281 -1.233,-4.731 -2.959,-4.791c-6.867,-0.19 -12.241,6.781 -14.488,12.587c-2.57,6.637 -4.116,13.985 -2.727,20.581c0.649,3.084 2.784,5.975 5.881,6.926c11.489,3.527 25.951,-4.916 31.067,-16.779c2.418,-5.608 11.193,-29.159 30.133,-33.081c11.117,-2.301 21.246,1.766 21.246,1.766l-4.98,9.036c0,0 -10.923,-5.574 -20.571,1.127c-10.353,7.191 -16.777,21.026 -14.381,30.058c1.417,5.345 7.084,8.628 14.032,7.433c4.135,-0.712 7.957,-2.892 10.644,-6.264c2.4,-3.014 3.845,-6.687 4.698,-10.421c0,0 0.49,-2.661 0.986,-6.807c0.235,-1.961 0.387,-6.81 0.387,-6.81l9.912,0.867c0.001,0.049 0.05,0.137 0.002,0.146Z" style="fill:#fff;fill-rule:nonzero;"/></g></svg>
