<?xml version="1.0" encoding="UTF-8" standalone="no"?><!DOCTYPE svg PUBLIC "-//W3C//DTD SVG 1.1//EN" "http://www.w3.org/Graphics/SVG/1.1/DTD/svg11.dtd"><svg width="100%" height="100%" viewBox="0 0 178 339" version="1.1" xmlns="http://www.w3.org/2000/svg" xmlns:xlink="http://www.w3.org/1999/xlink" xml:space="preserve" xmlns:serif="http://www.serif.com/" style="fill-rule:evenodd;clip-rule:evenodd;stroke-linejoin:round;stroke-miterlimit:1.41421;"><g><path d="M97.667,0.497c0,0 -18.165,2.753 -18.165,20c0,17.247 17.999,19.499 20.498,19.499c2.499,0 22.497,1.257 32.248,17.003c9.751,15.745 8.251,23.745 4.751,36.995c-3.5,13.25 -9.252,25.998 -7.501,51.749c1.751,25.751 8.007,46.751 17.004,61.751c8.997,15 17.747,22.5 20.247,42c2.5,19.5 -0.001,40.25 -26.75,64.75c-26.75,24.5 -70.797,11.632 -84.501,0.749c-8.497,-6.748 -16.248,-15.499 -14.748,-31.499c0,0 0.251,-7.75 4.5,-14.5c4.249,-6.75 10.504,-7.75 14.751,-4c0,0 6.996,3.998 3.497,13.999c-3.499,10.001 -2.251,17.999 4.5,23.5c6.751,5.501 23.006,9.097 37.504,5.424c12.018,-3.044 25.995,-11.175 31.996,-22.924c6.001,-11.749 5.387,-26.353 1.672,-33.25c-4.141,-7.685 -12.089,-15.25 -24.422,-14.25c-10.163,0.824 -27.252,7.499 -43.25,-10.75c-15.998,-18.249 -11.499,-43.499 -1.249,-52.749c10.25,-9.25 14.341,-10.25 18.921,-22.75c4.579,-12.5 -1.671,-30.25 -13.171,-40c-11.5,-9.75 -33.503,-8.501 -46.252,2.999c0,0 -6.25,8.499 -15.249,2.75c0,0 -7.251,-5.751 -2,-13c0,0 2.734,-4.284 10.251,-4c7.5,0.283 12.998,-2.501 18.749,-5.75c5.751,-3.249 14.506,-10.249 18.503,-20.499c3.998,-10.25 8.746,-22.502 23.247,-29.501l-6.499,-8.249c0,0 -17.002,8.748 -23.001,25.749c-5.999,17.001 -13.501,23.249 -26.5,27c-12.999,3.751 -21.749,0.751 -26.499,18.251c0,0 -2.502,13.248 9.749,19.999c0,0 12.501,5.751 24.001,-3.499c11.5,-9.25 21.75,-9.251 33,-3.501c11.25,5.751 20.248,25.749 3.249,40.5c-16.999,14.751 -19.001,22.999 -20.25,35.75c-1.249,12.751 5.251,32.001 17.501,41.001c12.25,9 17.835,11.166 32.001,12.082c0,0 10.135,0.389 15.998,-0.583c5.504,-0.913 9.449,-0.347 12.584,7.117c2.976,7.087 5.709,16.228 -1.581,25.636c0,0 -8.25,13.498 -22.001,16.248c-13.751,2.75 -25.503,1.998 -32.252,-4.751c0,0 -3.749,-3.999 -1.249,-11.249c2.5,-7.25 4.748,-19.502 -7.001,-25.751c-11.749,-6.249 -23.251,-0.501 -27.5,7.75c-4.249,8.251 -11.997,22.001 -2.748,42.251c9.249,20.25 40.746,32.748 58.498,32.999c17.752,0.251 40.501,-3.249 58.501,-20.749c18,-17.5 23.752,-32.5 26.001,-53.25c1.352,-12.478 -1.905,-24.955 -6.185,-35.258c-2.838,-6.831 -6.125,-12.706 -8.816,-16.992c-6.75,-10.75 -14,-23 -18,-39c-4,-16 -6.501,-32.5 -4.25,-50c2.25,-17.5 14.75,-39.75 7.25,-58.75c-7.5,-19 -12.998,-22 -22.999,-28.75c-10.001,-6.75 -17.113,-6.011 -24.748,-6.501c-7.752,-0.498 -12.753,-7.499 -7.503,-15.499c0,0 6.001,8.757 15.001,8.254c9,-0.503 6.749,-2.254 14.999,-4.004c8.25,-1.75 19,1 23,11.5c4,10.5 -0.748,15.5 -0.999,15.75c-0.251,0.25 6.75,9 6.75,9c0,0 9.997,-12.252 4.748,-26.501c-5.249,-14.249 -14.499,-21.749 -24.749,-21.999c-9.11,-0.222 -13.208,2.214 -16.649,4.295c-5.74,3.472 -11.348,2.205 -14.1,-0.295c0,0 -3.166,-3.744 -2.333,-9.747Z" style="fill:#e94a58;"/><path d="M122.499,74.809c-2.333,8.46 -11.587,14.68 -20.783,14.68c-9.196,0 -16.951,-6.221 -19.283,-14.68l-0.767,0c-2.333,8.46 -10.088,14.68 -19.283,14.68c-9.197,0 -16.952,-6.221 -19.284,-14.68l-0.047,0l0,-0.175c-0.437,-1.642 -2,-9.825 -2,-9.825l84.664,0l-3.217,10Zm-9.815,0c-0.137,2.604 -2.312,4.68 -4.968,4.68c-2.656,0 -4.831,-2.076 -4.968,-4.68l9.936,0Zm-39.334,0l-9.935,0c0.137,2.605 2.312,4.68 4.968,4.68c2.656,0 4.831,-2.075 4.967,-4.68Z" style="fill:#e94a58;"/></g></svg>
